PathFileType	4	(X/Y/Z)	c:/Users/goper/Files/vsCode/490R/osim_files/C15/C15_Fast_03.trc
DataRate	CameraRate	NumFrames	NumMarkers	Units                	OrigDataRate	OrigDataStartFrame	OrigNumFrames
250.00	250.00	10	36	mm	250.0	1149	2296
                Frame#	Time	LPSIS			LASIS			LTH1			LTH2			LTH3			LTH4			LLFE			LMFE			LSH1			LSH2			LSH3			LSH4			LLMAL			LMMAL			LCAL			LMTP5			LTOE			LMTP1			RPSIS			RASIS			RTH1			RTH2			RTH3			RTH4			RLFE			RMFE			RSH1			RSH2			RSH3			RSH4			RLMAL			RMMAL			RCAL			RMTP1			RTOE			RMTP5		
		X1	Y1	Z1	X2	Y2	Z2	X3	Y3	Z3	X4	Y4	Z4	X5	Y5	Z5	X6	Y6	Z6	X7	Y7	Z7	X8	Y8	Z8	X9	Y9	Z9	X10	Y10	Z10	X11	Y11	Z11	X12	Y12	Z12	X13	Y13	Z13	X14	Y14	Z14	X15	Y15	Z15	X16	Y16	Z16	X17	Y17	Z17	X18	Y18	Z18	X19	Y19	Z19	X20	Y20	Z20	X21	Y21	Z21	X22	Y22	Z22	X23	Y23	Z23	X24	Y24	Z24	X25	Y25	Z25	X26	Y26	Z26	X27	Y27	Z27	X28	Y28	Z28	X29	Y29	Z29	X30	Y30	Z30	X31	Y31	Z31	X32	Y32	Z32	X33	Y33	Z33	X34	Y34	Z34	X35	Y35	Z35	X36	Y36	Z36

1149	4.59200	-311.29715	1006.86652	333.98141	-467.45575	979.77545	420.45166	-299.44095	607.60199	467.11877	-291.15717	561.85681	449.88226	-351.60324	604.07397	465.65024	-343.12265	559.62927	455.84152	-284.85400	486.69696	433.17737	-295.80795	469.31482	316.37875	-186.32237	404.57037	439.80554	-169.98134	362.58295	441.53720	-242.83751	377.10587	441.29611	-219.43286	338.90298	443.58685	-99.09958	110.23674	373.27365	-125.46832	131.55510	284.97003	-33.50761	96.00437	328.47293	-203.26213	35.11324	394.28622	-261.76740	54.37256	332.23611	-218.33383	31.54281	273.91241	-327.63708	1001.26532	213.83240	-490.02429	976.50226	172.37883	-535.52039	619.33887	102.46241	-553.20947	576.62646	111.88947	-587.44061	639.23108	127.13748	-599.92383	593.28973	128.76871	-591.84247	494.58386	143.56769	-572.75372	467.94302	258.70584	-558.42987	370.57553	119.40792	-577.25110	331.52783	117.04983	-617.54492	391.74887	121.11609	-626.92450	350.39017	116.30364	-720.80646	98.52496	171.80365	-733.52893	136.81284	257.59573	-680.86371	45.46058	220.75404	-862.30255	131.54710	259.70233	-883.43744	164.09137	205.95316	-852.89648	98.51669	147.73558
1150	4.59600	-316.54080	1005.95068	333.43005	-472.60571	978.81793	420.30157	-303.36362	607.23248	466.91861	-295.11609	561.44623	449.68594	-355.39148	603.42163	465.63593	-347.04477	559.05078	455.89807	-288.49008	486.27917	433.16138	-299.77710	468.58853	316.51596	-189.75249	404.63541	439.62375	-172.69543	363.06110	441.58127	-245.62967	376.97098	441.37982	-221.95883	338.89398	443.67081	-99.81911	111.13747	373.46011	-126.40175	132.29869	285.16119	-34.17838	97.26617	328.59622	-203.33493	35.25908	394.42007	-261.88004	54.33485	332.28073	-218.50502	31.50715	274.12769	-333.21875	1000.27405	213.26083	-496.73697	975.77667	172.06134	-541.74530	618.76337	102.64578	-559.85364	575.92328	112.39127	-593.64563	638.78760	127.27481	-606.13470	592.85748	129.08044	-597.97986	493.97266	143.85091	-578.78436	467.48312	258.79544	-564.43921	369.84277	119.80023	-583.68060	331.17322	117.10024	-622.68469	391.36038	121.57742	-633.00641	349.69910	116.69441	-727.34662	98.04882	172.15942	-739.64764	136.33270	257.89648	-687.34668	44.83413	220.79851	-868.14459	131.75217	260.64182	-889.59985	164.14040	207.06682	-860.56708	98.09611	150.35667
1151	4.60000	-321.85675	1005.07941	332.93176	-477.86859	977.83429	420.10608	-307.42108	606.77167	466.69070	-298.90872	561.11383	449.60843	-359.44037	602.80914	465.60019	-350.88470	558.47205	455.93988	-292.28824	485.78149	433.16605	-303.95038	467.81656	316.67050	-192.98209	404.95453	439.69138	-175.64903	363.47180	441.60156	-248.76941	376.78296	441.38791	-224.69913	338.95914	443.72992	-100.60424	112.06680	373.69916	-127.30436	133.05229	285.37256	-34.83644	98.55640	328.87186	-203.50677	35.12183	394.35016	-262.00699	54.30231	332.34006	-218.59749	31.53033	274.26880	-338.76947	999.41400	212.89413	-502.22650	974.90088	171.89612	-547.95520	618.23956	102.84528	-565.72455	575.57007	112.56133	-599.78180	638.34650	127.31578	-612.33270	592.48364	129.41472	-604.27094	493.71661	144.19116	-585.05286	467.08633	258.97223	-570.49890	369.26245	120.25745	-589.64978	330.57693	117.59857	-629.57483	390.44028	121.86805	-638.91180	349.02106	117.02933	-733.28314	97.27763	172.65366	-745.32471	135.60867	258.32510	-693.22626	43.88374	220.94307	-873.64551	131.35973	261.48920	-895.18256	163.76056	208.01997	-866.54297	97.62558	151.18877
1152	4.60400	-327.26883	1004.23633	332.47803	-483.12634	976.90582	419.88651	-311.51608	606.29108	466.46097	-303.02963	560.60742	449.40906	-363.62247	602.17389	465.53787	-354.89963	557.80670	455.91022	-296.16312	485.26019	433.14581	-307.98981	467.12119	316.72290	-196.28136	405.29913	439.73941	-178.70116	363.86050	441.75931	-251.96893	376.51276	441.38589	-227.50964	338.89352	443.79385	-101.36770	113.01472	373.98422	-128.46620	133.71756	285.55325	-35.60806	99.87120	329.12448	-203.59933	35.25313	394.50751	-262.09207	54.23731	332.40973	-218.68347	31.57116	274.40436	-344.27155	998.64368	212.40953	-507.76385	973.99756	171.75078	-554.02350	617.73431	103.14606	-571.96423	575.09833	112.89885	-606.05371	638.01740	127.35703	-618.19946	591.79700	129.83455	-610.75531	493.50125	144.57477	-591.49799	466.89450	259.34354	-576.62958	368.76108	120.69127	-595.50122	330.06906	118.09534	-635.72119	389.79013	122.18214	-644.97845	348.33551	117.35072	-738.61353	96.39556	173.14221	-750.52771	134.64539	258.94034	-698.41058	43.31258	221.31783	-878.67834	130.37097	262.22894	-900.24670	162.89836	208.68138	-871.52600	96.25941	152.07181
1153	4.60800	-332.63562	1003.38470	332.06024	-488.57761	975.87988	419.64432	-315.84604	605.67188	466.27237	-307.24194	560.01807	449.22601	-368.01373	601.42065	465.38190	-359.22742	557.15338	455.71979	-300.27008	484.65921	433.10687	-312.10751	466.40637	316.71594	-199.54062	405.71750	439.97800	-181.82053	364.27548	441.85681	-255.20306	376.20154	441.43054	-230.45987	338.82867	443.89294	-102.23076	114.12771	374.39005	-129.26192	134.58734	285.89609	-36.44886	101.23901	329.42358	-203.74969	35.21313	394.55615	-262.23712	54.12872	332.48053	-218.65752	31.77963	274.50299	-350.12210	997.80780	212.07027	-512.64252	972.81537	171.80768	-559.97314	617.48468	103.35760	-578.60455	574.59698	113.27565	-612.33667	637.70300	127.38923	-624.44208	591.49225	129.94556	-617.45435	493.39835	145.07336	-598.01971	466.53906	259.66806	-582.80371	368.27188	121.10405	-601.64447	329.19244	118.61779	-641.80011	389.10971	122.45831	-650.85828	347.56842	117.67891	-743.29053	95.35031	173.68640	-755.25488	133.41669	259.47803	-702.47498	42.48732	221.98625	-883.38190	128.80002	262.98206	-905.08740	161.14351	209.69087	-876.20715	94.92928	152.86137
1154	4.61200	-338.13992	1002.49414	331.69031	-493.87903	974.89752	419.41949	-320.38019	605.00995	466.09207	-310.88705	559.03876	448.43506	-372.45361	600.57434	465.18524	-363.51788	556.39972	455.60864	-304.35522	484.05609	433.05228	-316.37888	465.58438	316.69144	-203.58115	405.61340	439.91849	-185.15701	364.59189	442.02722	-258.55853	375.87564	441.49286	-233.47469	338.71185	443.93985	-103.74377	114.73150	374.88782	-130.30574	135.40628	286.16458	-37.23912	102.65266	329.72067	-203.92474	35.18270	394.57599	-262.31616	54.00018	332.55505	-218.70168	31.84524	274.61389	-355.49127	997.01660	211.74336	-518.84735	972.28351	171.39590	-566.28058	616.81421	103.76060	-584.59924	574.25891	113.45775	-618.59650	637.38763	127.43340	-630.85724	591.25891	130.01868	-624.13306	493.30301	145.53261	-604.61456	466.35919	260.00122	-589.00818	367.85931	121.53661	-607.48425	328.74399	119.08587	-650.21429	387.22446	124.64107	-656.88239	346.76862	118.05997	-747.55719	94.22536	174.24928	-759.67346	132.06178	260.16739	-706.19543	42.30117	222.61765	-887.70148	126.58278	263.56161	-909.51636	159.27460	210.24660	-880.22382	93.12674	153.39523
1155	4.61600	-343.76807	1001.61572	331.36575	-499.20648	973.79132	419.13492	-324.95773	604.34833	465.81400	-315.98853	558.73578	448.82547	-376.94769	599.71716	464.98077	-367.91806	555.53107	455.46381	-308.64175	483.41055	432.96381	-320.67447	464.83667	316.57684	-207.35243	405.78403	440.02689	-188.53574	364.93765	442.15631	-261.93344	375.57059	441.52869	-236.60226	338.57245	444.02933	-104.04655	116.09257	374.83170	-131.34862	136.30125	286.45370	-37.31881	105.00198	329.67929	-204.10303	35.16798	394.62335	-262.46582	53.89671	332.61398	-218.79433	31.92861	274.68451	-361.34125	996.27795	211.47247	-524.41241	971.43042	171.20436	-572.72144	616.10590	103.63480	-590.78223	573.75653	113.83945	-624.82806	637.11981	127.45338	-637.32513	590.97699	130.06209	-630.87213	493.12280	145.99286	-611.31940	466.14929	260.39343	-595.18024	367.51428	121.95408	-613.10809	328.63287	119.47932	-654.35492	387.79053	123.23125	-662.81061	345.96619	118.50906	-751.42334	93.10138	175.04225	-764.14417	130.55339	260.71561	-708.91357	42.37349	223.08669	-891.76129	123.81561	264.14554	-913.61896	156.48840	211.00752	-883.54767	90.86917	153.87973
1156	4.62000	-349.26108	1000.73090	331.05554	-504.86426	972.79639	418.85132	-329.64246	603.53326	465.61465	-320.65094	557.99084	448.59320	-381.67249	598.90894	464.76736	-372.44687	554.68219	455.23431	-313.04053	482.78366	432.92392	-325.01929	464.20746	316.48904	-210.83171	406.30420	440.33383	-192.05049	365.29150	442.27701	-265.61987	375.15994	441.51965	-239.86140	338.54947	444.06512	-105.03316	117.19937	375.18719	-132.53107	137.24477	286.64050	-37.99669	106.78908	329.93484	-204.28084	35.18736	394.66318	-262.61075	53.80082	332.64590	-218.60213	32.30095	274.70584	-366.86023	995.53064	211.21068	-530.15289	970.59918	170.87097	-579.05237	615.62982	103.83643	-597.24353	573.19958	114.29144	-631.10327	636.76562	127.41844	-643.69641	590.68097	130.11388	-637.67981	493.00372	146.47949	-618.25830	466.19135	260.88492	-601.39203	367.45291	122.51756	-618.88556	328.28516	119.90228	-662.66119	385.87866	125.58707	-668.67761	345.15817	119.02760	-754.63055	91.93900	175.67683	-767.90344	129.04977	261.45776	-710.79114	42.53627	223.57829	-895.40747	120.56028	264.68283	-917.58673	153.17369	211.57761	-886.32898	87.94511	154.36325
1157	4.62400	-355.04868	999.89160	330.76868	-510.46243	971.68585	418.50540	-334.50613	602.90228	465.32169	-325.40814	557.28564	448.36783	-386.50659	598.09399	464.52179	-377.06250	553.94916	454.98553	-317.43491	482.10666	432.84225	-329.49750	463.45499	316.34662	-214.80954	406.43057	440.38919	-195.70363	365.60846	442.43271	-269.28284	374.88541	441.52979	-243.08676	338.41470	444.11389	-106.22205	118.24509	375.38235	-133.53195	138.24635	286.99902	-38.90003	108.56838	330.11374	-204.49776	35.24777	394.69620	-262.75635	53.67284	332.69995	-218.69453	32.38328	274.76331	-372.81232	994.85535	211.03302	-535.72217	969.78894	170.58098	-585.30188	615.58612	103.75561	-603.51190	573.03735	114.58456	-637.51147	636.47791	127.33516	-650.18304	590.50580	130.09373	-644.51257	492.85196	146.97292	-625.24121	466.24268	261.28146	-607.42297	367.20682	123.01113	-624.60687	327.98477	120.30928	-666.96619	386.35529	124.48590	-674.71356	344.42850	119.63096	-757.26764	90.52770	176.07571	-771.30591	127.29220	262.13336	-712.56201	42.63394	224.08388	-898.51099	116.76373	265.14597	-921.30573	149.49402	211.95950	-888.76123	84.94350	154.71640
1158	4.62800	-360.73410	999.07611	330.51556	-516.05682	970.61914	418.22528	-339.39291	602.18488	465.02432	-329.72098	556.20105	447.56866	-391.35864	597.19507	464.19760	-381.85406	553.10272	454.76294	-322.05411	481.41049	432.79025	-334.03653	462.63809	316.19247	-218.85649	406.59750	440.53232	-199.27423	365.97934	442.54916	-272.93893	374.50879	441.62439	-246.55241	338.37228	444.13428	-107.07172	119.64175	375.72647	-134.91791	139.15591	287.28159	-39.82501	110.41383	330.38364	-204.75464	35.30163	394.72086	-262.95483	53.54107	332.72180	-218.77908	32.45010	274.81189	-378.33997	994.24353	210.74013	-541.45190	968.95630	170.37271	-591.62939	614.66852	104.26592	-609.98865	572.58856	114.87372	-643.79620	636.21521	127.21938	-656.51154	590.14142	130.15594	-651.34369	492.65176	147.48976	-632.21576	466.39563	261.75394	-613.57977	367.02426	123.50535	-630.37762	327.76437	120.72546	-673.17517	385.70380	125.18517	-680.44861	343.67010	120.33741	-759.55377	89.04530	176.71814	-774.10651	125.34198	262.92334	-713.98401	42.67720	224.63226	-901.25726	112.33437	265.68457	-924.45135	145.11635	212.73503	-890.52045	81.48737	155.27681
